,
Brought to you by  http://www.scenetime.com/signup.php
 
 Hottest scene tracker on the net !!!   
 
No fake torrents from scenebalance 
shame on those who comment fake before downloading my torrents

    seed back for speed


 



...................................NFO:.................................................
                   _..._                          _..._    
                .-'_..._''.                    .-'_..._''.  
        .--.  .' .'      '.\                 .' .'      '.\
        |__| / .'                           / .'            
    .|  .--.. '               .|           . '              
  .' |_ |  || |             .' |_     __   | |              
.'     ||  || |           .'     | .:--.'. | |              
'--.  .-'|  |. '          '--.  .-'/ |   \ |. '              
  |  |  |  | \ '.          .|  |  `" __ | | \ '.          .
  |  |  |__|  '. `._____.-'/|  |   .'.''| |  '. `._____.-'/
  |  '.'        `-.______ / |  '.'/ /   | |_   `-.______ /  
  |   /                  `  |   / \ \._,\ '/            `  
  `'-'                      `'-'   `--'  `"                

_____ _____  ____   ____  ____  __  _  _____  ____
| ()_)| () )| ===| (_ (_`| ===||  \| ||_   _|(_ (_`
|_|   |_|\_\|____|.__)__)|____||_|\__|  |_| .__)__)



I See You .Com 2006 DVDRip (REQ) TiCTaC

 
http://www.imdb.com/title/tt0489085/


I-See-You.Com

A 17-year-old boy buys mini-cameras and displays the footage online at I-see-you.com. The cash rolls in as the site becomes a major hit. Everyone seems to have fun until it all comes crashing down....


5.7/10

Cast

Beau Bridges 	Beau Bridges 	... 	
Harvey Bellinger
Rosanna Arquette 	Rosanna Arquette 	... 	
Lydia Ann Layton
Mathew Botuchis 	Mathew Botuchis 	... 	
Colby Allen
Shiri Appleby 	Shiri Appleby 	... 	
Randi Sommers
Dan Castellaneta 	Dan Castellaneta 	... 	
Jim Orr
Baelyn Neff 	Baelyn Neff 	... 	
Audrey Bellinger
Victor Alfieri 	Victor Alfieri 	... 	
Ciro Menotti
Tracee Ellis Ross 	Tracee Ellis Ross 	... 	
Nancy Tanaka
Doris Roberts 	Doris Roberts 	... 	
Doris Bellinger
Hector Elizondo 	Hector Elizondo 	... 	
Greg Rishwain
Tiffany Baldwin 	Tiffany Baldwin 	... 	
Jessica
William Dixon 	William Dixon 	... 	
Todd (as Will Dixon)
Robert A. Egan 	Robert A. Egan 	... 	
Klsen Executive #1
Jeff Halbleib 	Jeff Halbleib 	... 	
Klsen Executive #2
Brittany Petros 	Brittany Petros 	... 	




Genres:
Comedy

Language:
English 

General
Complete name                    : G:\I See You .Com 2006 DVDRip (REQ) TiCTaC\I See You .Com 2006 DVDRip (REQ) TiCTaC.avi
Format                           : AVI
Format/Info                      : Audio Video Interleave
File size                        : 1.07 GiB
Duration                         : 1h 30mn
Overall bit rate                 : 1 702 Kbps
Writing application              : Lavf52.13.0
Writing library                  : VirtualDub build 32842/release

Video
ID                               : 0
Format                           : MPEG-4 Visual
Format profile                   : Simple@L1
Format settings, BVOP            : No
Format settings, QPel            : No
Format settings, GMC             : No warppoints
Format settings, Matrix          : Default (H.263)
Codec ID                         : XVID
Codec ID/Hint                    : XviD
Duration                         : 1h 30mn
Bit rate                         : 1 497 Kbps
Width                            : 720 pixels
Height                           : 432 pixels
Display aspect ratio             : 16:9
Frame rate                       : 25.000 fps
Resolution                       : 8 bits
Colorimetry                      : 4:2:0
Scan type                        : Progressive
Bits/(Pixel*Frame)               : 0.193
Stream size                      : 967 MiB (88%)
Writing library                  : Lavc51.54.0

Audio
ID                               : 1
Format                           : MPEG Audio
Format version                   : Version 1
Format profile                   : Layer 3
Mode                             : Joint stereo
Format_Settings_ModeExtension    : MS Stereo
Codec ID                         : 55
Codec ID/Hint                    : MP3
Duration                         : 1h 30mn
Bit rate mode                    : Constant
Bit rate                         : 192 Kbps
Channel(s)                       : 2 channels
Sampling rate                    : 44.1 KHz
Stream size                      : 124 MiB (11%)
Alignment                        : Aligned on interleaves
Interleave, duration             : 26 ms (0.65 video frame)
Interleave, preload duration     : 522 ms
Writing library                  : LAME3.98 (beta)